<?xml version="1.0" encoding="utf-8"?>
<!-- Generator: Adobe Illustrator 22.0.1, SVG Export Plug-In . SVG Version: 6.00 Build 0)  -->
<svg version="1.1" id="Capa_1" xmlns="http://www.w3.org/2000/svg" xmlns:xlink="http://www.w3.org/1999/xlink" x="0px" y="0px"
	 viewBox="0 0 71 71" style="enable-background:new 0 0 71 71;" xml:space="preserve">
<style type="text/css">
	.st0{filter:url(#Adobe_OpacityMaskFilter);}
	.st1{fill:#FFFFFF;}
	.st2{fill:none;stroke:#000000;stroke-width:2.1837;stroke-miterlimit:10;}
	.st3{fill:#5B75B3;}
	.st4{fill-rule:evenodd;clip-rule:evenodd;fill:#5B75B3;}
	.st5{fill:#D43B35;}
	.st6{fill:#D55447;}
	.st7{fill:#725744;}
	.st8{fill-rule:evenodd;clip-rule:evenodd;fill:#725744;}
	.st9{fill:#5B9529;}
	.st10{fill-rule:evenodd;clip-rule:evenodd;fill:#5B9529;}
	.st11{fill-rule:evenodd;clip-rule:evenodd;fill:#D43B35;}
	.st12{fill:#E0E0E0;}
	.st13{fill-rule:evenodd;clip-rule:evenodd;fill:#E0E0E0;}
	.st14{fill:none;stroke:#E0E0E0;stroke-width:2;stroke-miterlimit:10;}
	.st15{fill:none;stroke:#505050;stroke-width:3;stroke-miterlimit:10;}
	.st16{fill:#333333;}
	.st17{fill:none;stroke:#59544E;stroke-width:3;stroke-linecap:round;stroke-linejoin:round;stroke-miterlimit:10;}
	.st18{fill:none;stroke:#494949;stroke-width:6;stroke-miterlimit:10;}
	.st19{fill:#494949;}
	.st20{fill:#606060;}
	.st21{fill-rule:evenodd;clip-rule:evenodd;fill:#606060;}
	.st22{fill:none;stroke:#000000;stroke-width:4.1696;stroke-miterlimit:10;}
	.st23{fill-rule:evenodd;clip-rule:evenodd;fill:#FFFFFF;}
</style>
<g>
	<g>
		<g>
			<path class="st1" d="M63.8,25.8c4,12.3-0.4,25.7-10.8,33.3c-10.4,7.6-24.6,7.6-35,0C7.6,51.5,3.2,38.1,7.2,25.8
				c4-12.3,15.4-20.6,28.3-20.6C48.4,5.2,59.8,13.5,63.8,25.8z M35.5,7.9c-11.7,0-22.1,7.6-25.8,18.7C6.1,37.8,10.1,50,19.6,56.9
				c9.5,6.9,22.4,6.9,31.9,0c9.5-6.9,13.5-19.1,9.8-30.3C57.6,15.5,47.2,7.9,35.5,7.9z"/>
		</g>
	</g>
	<path class="st1" d="M42.2,45c-6-6.1-16.8-8.5-17.3-8.6c-1-0.2-2,0.4-2.2,1.4c-0.2,1,0.4,2,1.4,2.2c0.1,0,10.1,2.2,15.4,7.6
		c0.2,0.2,0.4,0.3,0.7,0.4c0.7,0.3,1.4,0.1,2-0.4C42.9,47,42.9,45.8,42.2,45L42.2,45z M42.2,45"/>
	<path class="st1" d="M46.6,39.5c-6.8-7-19.1-9.7-19.6-9.8c-1-0.2-2,0.4-2.2,1.4c-0.2,1,0.4,2,1.4,2.2c0.1,0,11.7,2.6,17.7,8.8
		c0.2,0.2,0.4,0.3,0.7,0.4c0.7,0.3,1.4,0.1,2-0.4C47.4,41.4,47.4,40.2,46.6,39.5L46.6,39.5z M46.6,39.5"/>
	<path class="st1" d="M50.5,33.4C43,25.7,29.4,22.7,28.8,22.6c-1-0.2-2,0.4-2.2,1.4c-0.2,1,0.4,2,1.4,2.2c0.1,0,13,2.9,19.8,9.8
		c0.2,0.2,0.4,0.3,0.7,0.4c0.7,0.3,1.4,0.1,2-0.4C51.2,35.3,51.3,34.1,50.5,33.4L50.5,33.4z M50.5,33.4"/>
</g>
</svg>
