<?xml version="1.0" encoding="UTF-8" standalone="no"?>
<svg
   xmlns:dc="http://purl.org/dc/elements/1.1/"
   xmlns:cc="http://creativecommons.org/ns#"
   xmlns:rdf="http://www.w3.org/1999/02/22-rdf-syntax-ns#"
   xmlns:svg="http://www.w3.org/2000/svg"
   xmlns="http://www.w3.org/2000/svg"
   xmlns:sodipodi="http://sodipodi.sourceforge.net/DTD/sodipodi-0.dtd"
   xmlns:inkscape="http://www.inkscape.org/namespaces/inkscape"
   inkscape:version="1.0 (4035a4fb49, 2020-05-01)"
   height="91.902351"
   width="540.42499"
   sodipodi:docname="yunga-m.svg"
   xml:space="preserve"
   viewBox="0 0 540.42499 91.902351"
   y="0px"
   x="0px"
   id="Capa_1"
   version="1.1"><metadata
   id="metadata37"><rdf:RDF><cc:Work
       rdf:about=""><dc:format>image/svg+xml</dc:format><dc:type
         rdf:resource="http://purl.org/dc/dcmitype/StillImage" /></cc:Work></rdf:RDF></metadata><defs
   id="defs35" /><sodipodi:namedview
   inkscape:current-layer="Capa_1"
   inkscape:window-maximized="1"
   inkscape:window-y="-8"
   inkscape:window-x="1912"
   inkscape:cy="-79.646189"
   inkscape:cx="210.38616"
   inkscape:zoom="1.0773131"
   showgrid="false"
   id="namedview33"
   inkscape:window-height="1017"
   inkscape:window-width="1920"
   inkscape:pageshadow="2"
   inkscape:pageopacity="0"
   guidetolerance="10"
   gridtolerance="10"
   objecttolerance="10"
   borderopacity="1"
   bordercolor="#666666"
   pagecolor="#ffffff" />
<style
   id="style2"
   type="text/css">
	.st0{filter:url(#Adobe_OpacityMaskFilter);}
	.st1{fill:#FFFFFF;}
	.st2{fill:none;stroke:#000000;stroke-width:2.1837;stroke-miterlimit:10;}
	.st3{fill:#5B75B3;}
	.st4{fill-rule:evenodd;clip-rule:evenodd;fill:#5B75B3;}
	.st5{fill:#D43B35;}
	.st6{fill:#D55447;}
	.st7{fill:#725744;}
	.st8{fill-rule:evenodd;clip-rule:evenodd;fill:#725744;}
	.st9{fill:#5B9529;}
	.st10{fill-rule:evenodd;clip-rule:evenodd;fill:#5B9529;}
	.st11{fill-rule:evenodd;clip-rule:evenodd;fill:#D43B35;}
	.st12{fill:#E0E0E0;}
	.st13{fill-rule:evenodd;clip-rule:evenodd;fill:#E0E0E0;}
	.st14{fill:none;stroke:#E0E0E0;stroke-width:2;stroke-miterlimit:10;}
	.st15{fill:none;stroke:#505050;stroke-width:3;stroke-miterlimit:10;}
	.st16{fill:#333333;}
	.st17{fill:none;stroke:#59544E;stroke-width:3;stroke-linecap:round;stroke-linejoin:round;stroke-miterlimit:10;}
	.st18{fill:none;stroke:#494949;stroke-width:6;stroke-miterlimit:10;}
	.st19{fill:#494949;}
	.st20{fill:#606060;}
	.st21{fill-rule:evenodd;clip-rule:evenodd;fill:#606060;}
	.st22{fill:none;stroke:#000000;stroke-width:4.1696;stroke-miterlimit:10;}
	.st23{fill-rule:evenodd;clip-rule:evenodd;fill:#FFFFFF;}
</style>
<g
   transform="rotate(-90,44.65,168.85)"
   id="g30">
	<g
   id="g6">
		<path
   id="path4"
   d="m 203.5,416.7 c 1.2,-1.9 1.2,-4 0.6,-6.2 -1.2,-4.9 -1.8,-9.9 -1.6,-15 0.2,-5 0,-10.1 0,-14.9 -0.8,-1.1 -1.4,-1.9 -2.1,-2.9 1.1,-0.4 1.9,-0.7 3,-1.1 0,-10.4 0,-20.7 0,-31.1 -4.3,-1.2 -8.2,-2.2 -11.9,-3.4 -2.6,-0.8 -5,-1.9 -7.6,-2.8 -0.5,0 -1.1,0 -1.6,0 -1.4,1.1 -2.9,2.3 -4.6,3.6 0,3.5 0.2,7.3 -0.1,11.1 -0.4,5.2 0.8,10 3.2,14.5 0.2,0.4 0.3,0.8 0.3,0.9 -0.8,7 -1.5,13.8 -2.2,20.6 -1.2,-0.6 -1.6,-1.2 -1.9,-1.9 -1.6,-3.6 -3,-7.3 -4.7,-10.9 -0.9,-1.9 -2.2,-3.6 -3.6,-6 0.3,-2.4 -3.7,-12.7 -8,-19.3 -5.8,1.6 -11.9,3.3 -17.9,4.9 0.1,0.1 0.2,0.3 0.3,0.4 -1.6,1.1 -3.2,2.3 -4.8,3.4 -1.1,-0.7 -1.9,-1.1 -2.8,-1.6 -1.5,0.6 -2.9,1.3 -4.4,1.9 1,7.2 2,14.1 3,21 -1,0.2 -1.8,0.3 -2,0.4 -0.7,13.2 -1.4,26.1 -2.1,39.4 0.4,0.7 1.1,1.7 1.4,2.1 -0.6,3 -1.5,5.3 -1.5,7.7 -0.2,6.7 0,13.4 0,20.1 0.8,0 1.6,0 2.5,0 1.2,-0.5 2.4,-1.1 3.7,-1.6 0.5,-1.1 1,-2.3 1.9,-4.4 0.2,2.2 0.4,3.4 0.6,5.1 5.9,-0.4 11.7,-0.8 17.3,-1.2 0.9,-6.6 0.4,-21.2 -0.9,-28.1 -0.9,-4.8 -0.3,-9.5 -0.4,-14.3 0.4,-0.1 0.7,-0.1 1.1,-0.2 3.3,11.3 6.6,22.6 10,34.1 5.2,0.3 10,-2 15.4,-2.3 -0.7,1.1 -1.2,1.8 -1.9,2.9 9,-1 17.4,-1.9 26.2,-2.8 0,-6.6 0.1,-12.8 -0.1,-18.9 -0.2,-1 -1.2,-2 -1.8,-3.2 z" />
	</g>
	<g
   id="g10">
		<path
   id="path8"
   d="m 210.7,658.4 c -0.9,-2.8 -1.8,-5.7 -2.8,-8.5 -3.9,-10.2 -7.9,-20.3 -11.8,-30.5 -0.4,-1.1 -0.5,-2.3 -0.7,-3.4 1.2,-0.8 2.1,-1.3 3.1,-2 -0.4,-1 -0.7,-1.9 -1.1,-2.8 -4.6,-0.1 -9.1,-0.1 -13.1,-2.1 -0.5,-2.6 -0.7,-5.1 -1.3,-7.4 -3.4,-11.9 -7,-23.7 -10.6,-36 -1,0 -2.3,0 -3.6,0 -4.8,0 -9.6,0.1 -14.3,0 -1.9,0 -3.7,-0.5 -6.2,-0.8 -0.5,0.2 -1.6,0.7 -3.1,1.3 -6.4,15.2 -12.9,30.6 -19.4,45.8 -1.5,-0.2 -2.5,-0.4 -4,-0.6 0.1,1.9 0.2,3.4 0.3,5.3 2.3,0.1 4.2,0.4 6,0.1 2.1,-0.4 4,-0.3 6.1,0.8 0,3.3 -0.8,6.4 -1.9,9.4 -2.6,7.4 -5.3,14.8 -8,22.2 -0.8,2.3 -1.6,4.6 -2.2,7 -0.7,2.6 -0.7,5.3 0.2,8.3 7.9,-0.5 15.8,0.9 23.8,-0.9 1.9,-4.4 3.7,-8.6 5.8,-13.2 8.9,0.4 17.8,-0.8 26.4,0.7 1.7,3.3 3,6.1 4.6,8.8 1.3,2.3 3.4,4.3 6.1,4.4 5.3,0.2 10.6,0.9 16,-0.7 2.8,1.8 5.6,0.8 8.5,-0.2 0,-0.3 0,-0.5 0,-0.8 -2.1,-0.6 -2.3,-2.5 -2.8,-4.2 z m -52.5,-49.3 c -1.5,0.5 -3,1.1 -5.2,1.9 0.8,-6.3 1.1,-6.8 4,-7.1 0.4,1.1 0.8,2.2 1.1,3.3 0.2,0.5 0.1,1.1 0.1,1.9 z m 0.1,17.1 c 1.6,-3.7 2.9,-6.6 4.1,-9.5 2.1,0 3.7,0 5.2,0 2.8,2.8 3.1,6.3 3.9,9.5 -4.2,0 -8.1,0 -13.2,0 z" />
	</g>
	<g
   id="g14">
		<path
   id="path12"
   d="m 205.4,135.4 c 0,-0.1 0.1,-0.1 0.1,-0.2 0,0 0,0 0,0 0.1,-0.2 0.2,-0.4 0.2,-0.5 0,0 0,0 0,-0.1 0,-0.2 0,-0.4 0.1,-0.6 0.8,-3.5 1.4,-6.7 3,-9.7 -4.1,0.4 -7.9,0.8 -12,1.3 -0.3,-0.2 -0.9,-0.7 -1,-0.7 h -13.2 c -2.8,8.7 -5.6,17.1 -8.3,25.4 1,0.7 1.6,1.1 2.5,1.6 -1.7,1.1 -3,1.9 -4.2,2.7 -1.6,-0.3 -3.1,-0.6 -4.5,-0.8 -2.8,2.3 -2.7,6.8 -6.8,8.5 -1.1,-2 -2.2,-3.8 -3,-5.7 -1.6,-3.7 -1.3,-4.2 2.3,-6.8 0,-3.9 -1.4,-7.4 -3.4,-10.7 -0.8,-1.4 -1.5,-2.8 -2.5,-4.9 -0.3,-0.2 -1.3,-1 -2.2,-1.6 0,-5.1 -1.5,-6.6 -8.3,-8.4 -3.2,0.5 -6.2,1.3 -9.2,1.5 -3,0.1 -5.9,-0.3 -8.9,-0.6 v 6.5 c 0.6,0 1.1,0.1 1.6,0.1 0.3,1.4 0.1,3 0.8,3.7 3,3.1 3.5,7.1 4.3,10.8 3.1,3 3.1,3 8.6,2.7 0.2,0.9 0.4,1.8 0.5,2.2 -4.3,2.9 -9,-0.6 -13,1.9 -1,2.3 -0.1,4.1 0.8,5.9 2.1,4.1 4.4,8.1 6.4,12.3 2.8,5.8 5.2,11.9 8.4,17.6 0.8,1.5 0.5,3.2 1.7,4.2 2.4,2.1 2.7,4.9 2.4,7.6 -0.5,4.4 0.5,8.5 1.2,10.9 v 19.4 c 0.4,0.4 1,1 1.4,1.3 2.1,-0.2 3.9,-0.8 5.4,-0.4 4.7,1.3 9.1,-0.2 13,-1 2.4,0.4 4.3,0.6 6.5,1 1,-2.5 1.8,-4.7 2.5,-6.5 -1.4,-6.6 -2.9,-12.7 -2.6,-19.3 0.2,-4.2 0.4,-8.2 2,-12.1 4.5,-11.1 9,-22.2 13.5,-33.3 0.6,-1.4 1,-2.8 1.4,-4.1 -1,-0.9 -1.7,-1.6 -2.6,-2.4 3.1,-0.7 5.9,-1.3 8.5,-1.9 1.6,-3.7 3.1,-7.2 4.6,-10.7 0.5,-1.8 1,-3.7 1.9,-5.4 0,-0.3 0,-0.5 0.1,-0.7 z" />
	</g>
	<g
   id="g24">
		<g
   id="g18">
			<path
   id="path16"
   d="m 153.4,237.8 c -3.3,0 -6.7,0 -10.2,0.1 -1,0 -1.9,0.2 -2.9,0.1 -2.6,-0.2 -7.6,-0.8 -11.5,-1.2 -0.1,0.4 -2.8,0.2 -3,0.6 0.7,0.1 -0.1,1 -0.5,1.9 -1,2 0.4,6.9 0,6.9 0.1,0.3 0.1,0.6 0,0.6 0.1,1.1 0.2,2.2 0.2,3.3 0,1 -0.5,2.1 -0.7,2.8 1.8,8.5 0.2,16.9 1.1,25.4 6.2,-0.1 12.3,0.1 18.3,-0.3 3.1,-0.2 6.1,-1.3 8.9,-1.9 1.2,-3 1,-23.5 -0.2,-29.9 0.8,-2.5 2.3,-5.1 0.5,-8.4 z" />
		</g>
		<g
   id="g22">
			<path
   id="path20"
   d="m 210,272.8 c -1.3,-0.6 -2.4,-1 -3,-1.3 -0.2,-2.3 -0.4,-4.2 -0.5,-6.1 0,0 0.1,0 0.1,0 0,-8.9 0,-17.8 0,-27.2 -1.8,-0.7 -3.8,-1.4 -5.7,-2.2 -4,2 -7.9,2.5 -11.9,1.2 -1.1,0.6 -2,1.1 -2.7,1.5 -1.5,-0.7 -2.7,-1.2 -4.1,-1.8 -1,1.1 -1.8,1.9 -2.5,2.6 0,4.4 -0.1,8.5 0.1,12.6 0.1,1.6 0.7,3.3 1.2,5.5 -0.3,1.4 -0.8,3.5 -1.3,5.4 0.6,1.5 1,2.6 1.4,3.6 -0.4,1.7 -0.7,3.2 -1,4.6 1.1,0.2 1.7,0.4 2.9,0.6 -1.4,1.3 -2.4,2.1 -3.4,3 0.2,0.3 0.3,0.7 0.5,1 1.6,-0.3 3.3,-0.7 4.9,-1 1.7,-0.3 3.5,-0.4 5.3,-0.5 1.7,-0.1 3.2,0.5 4.7,1.3 -4.8,1.1 -10.4,-0.2 -13.5,5.2 0.3,0.8 0.5,1.5 0.7,2.3 -0.5,0.8 -1,1.6 -1.5,2.2 1.8,5.2 -0.8,9.6 -1.5,14.2 -3.4,3.4 -7.3,5.8 -11.9,7.5 -3.4,-2.1 -6.7,-4.2 -9.4,-5.9 -1.2,-2.2 -2.1,-3.8 -3.1,-5.5 2.2,-2.6 0.2,-5.2 -0.2,-7.8 0.2,-2 0.3,-4 0.4,-5.7 -5.9,0 -11.7,0 -17.3,0 -0.5,0.9 -1,1.6 -1.4,2.3 -3.1,-0.5 -5.8,-2.3 -9,-0.9 -0.5,11.5 -0.6,23 7.4,32.3 6.9,8.1 15.6,13.2 26.9,13.6 -0.1,-1.4 -0.2,-2.5 -0.3,-3.6 0.2,0 0.3,0 0.5,-0.1 0.8,1.2 1.5,2.4 2.3,3.7 4,0 7.8,0 11.5,0 0.5,-0.7 0.9,-1.2 1.3,-1.7 4.6,1.5 8.1,-0.5 11.6,-2.8 0,-1 0,-1.7 0,-2.5 1.4,0.3 2.5,0.6 3.7,0.9 1.4,-1.1 2.7,-2 3.9,-2.9 0.3,-1.7 -0.6,-3.7 1.7,-4.3 0.6,0.3 1.3,0.7 2.2,1.2 9.3,-11.2 8.3,-24 7.2,-37 0.2,-1.6 0.3,-3.3 0.5,-5.3 0.8,-0.3 1.5,-1.1 2.3,-2.2 z" />
		</g>
	</g>
	<g
   id="g28">
		<path
   id="path26"
   d="m 159.4,494.4 c 5.7,-6 12.4,-9.9 20.8,-10.2 1.2,1.1 2.3,2 3.3,2.9 1,-0.5 1.8,-0.9 2.5,-1.2 3.1,1.1 6,2.2 8.8,3.2 5.7,-3.2 6.1,-9.8 10,-14 -0.1,-1.3 -0.2,-2.5 -0.3,-3.8 -1.4,-0.7 -2.6,-1.4 -3.9,-2.1 -0.1,-2.6 -1.9,-5 -4.2,-5.2 -0.8,0.4 -1.8,0.8 -2.7,1.3 -5.4,-1.6 -10.9,-2.8 -16.4,-3.5 -2.5,-0.4 -5.2,-0.5 -7.4,1.3 -0.2,0.1 -0.5,0.1 -0.7,0.1 -1.2,-0.6 -2.2,-1.1 -3.7,-1.9 -3.9,2.1 -7.8,4.3 -11.8,6.3 -8.6,4.2 -14.6,10.9 -18.5,19.5 -3,6.6 -5.5,13.4 -4.9,20.9 0.5,6.8 1.2,13.5 1.8,20.3 3.9,2.9 4,3.2 5.2,8.2 0.3,1.3 1,2.6 1.9,3.5 6.3,5.9 13.1,11 21.5,13.7 5.9,1.9 11.8,1.4 17.8,1.6 10.5,0.4 18.4,-5.1 25.8,-11.5 0.3,-0.2 0.2,-0.8 0.4,-1.2 -0.6,-1 -1.3,-2.1 -2,-3.3 0.4,-3.2 0.7,-6.5 1.1,-9.8 0.3,-2 0.9,-4 0.9,-6 0,-3.5 0.1,-7.1 -0.5,-10.6 -0.5,-3.4 0,-7.1 -2,-10.2 -4.8,-0.8 -5.9,-0.7 -8.8,0.8 -6.4,-2.3 -12.5,-1.2 -19,0 0,5.1 -0.1,10.3 0.1,15.5 0,0.9 0.8,1.8 1.2,2.5 2.2,-0.2 3.9,-0.3 6.2,-0.5 -0.4,3.5 -0.8,6.4 -1.1,9.5 -8.1,-0.5 -14.5,-2.7 -19.3,-6.8 -1.5,-1.3 -3.1,-2.8 -3.9,-4.6 -3.3,-7.3 -3.4,-14.8 0.2,-22.1 0.4,-1 0.9,-1.9 1.6,-2.6 z" />
	</g>
</g>
</svg>
