<?xml version="1.0" encoding="utf-8"?>
<!-- Generator: Adobe Illustrator 22.0.1, SVG Export Plug-In . SVG Version: 6.00 Build 0)  -->
<svg version="1.1" id="Capa_1" xmlns="http://www.w3.org/2000/svg" xmlns:xlink="http://www.w3.org/1999/xlink" x="0px" y="0px"
	 viewBox="0 0 1400 500" style="enable-background:new 0 0 1400 500;" xml:space="preserve">
<g>
	<path d="M714.9,358.3c-11.1,1.7-21.5,5.6-33.1,5.1c-7.3-24.4-14.5-48.6-21.7-72.8c-0.4,0-0.7,0.1-1.1,0.1c-0.1,3-0.2,6-0.3,9
		c-0.4,9,0.3,17.9,2.9,26.7c0.4,1.4,0.5,3,0.5,4.5c0.1,16,0.1,32,0.1,48c0,1-0.2,1.9-0.3,3.3c-14.3,3.1-28.7,3.6-43.4,3.1
		c-1.1-1.3-2.2-2.6-3.5-4.3c-1.3,1.4-2.4,2.6-4,4.3c-4.5,0.8-9.5,1.8-14.5,2.7c-2.1-3.1-2.7-6.1-2.7-9.3c0-14.7,0-29.3,0.2-44
		c0-2.1,0.9-4.2,1.6-6.2c1-2.6,2.2-5.2,3.3-7.7c-0.7-1.1-1-2.1-1.7-2.8c-3.9-3.5-3.6-7.9-3.1-12.5c2.3-19.3,4.4-38.7,4-58.2
		c-0.2-10.3,0-20.7,0-31c0-1.6,0-3.3,0-5c1.7-0.9,3.2-1.6,5-2.5c-1.8-14.8-3.6-29.6-5.4-44.2c6.9-4.1,13.2-6.7,20.2-2.6
		c1-0.6,1.8-1,2.3-1.5c6.2-6.7,14.6-8.8,23-11c9.4-2.6,18.9-5.2,28.3-7.8c0.6-0.2,1.3,0,2.4,0c3.1,6.8,6.5,13.6,9.3,20.7
		c3.6,8.9,6.8,18,10.1,27c0.3,0.9,0.6,1.9,1.2,2.7c7.7,11.2,11.9,24.1,17.2,36.4c0.5,1.2,1.2,2.3,2.3,4.6c0.8-4.8,1.7-8.5,2-12.3
		c0.9-11.4,1.7-22.9,2.2-34.4c0.1-2.5-0.8-5.2-1.8-7.6c-2.7-6.5-4.4-13.2-4.3-20.3c0.2-12,0-24,0.1-36c0-1.2,0.1-2.3,0.2-3.9
		c4.6-2.2,9.2-4.3,14-6.6c16.4,4.6,32.8,9.2,49.2,13.9c2.8,26.4,2.9,52.1,1.2,77.6c-1.9,1.3-3.2,2.2-4.9,3.3
		c3.9,4.8,2.9,10.5,3,15.8c0.1,9.8-0.6,19.7-0.4,29.5c0.2,7.1,1.2,14.2,2.3,21.3c0.9,5.9,2.6,11.7,3.9,17.5c0.5,2.3,0.5,4.6-1,6.7
		c-0.9,1.2-1.2,2.7-2.1,4.5c6.1,3.6,4.8,9.6,4.8,15.2c0,12.6,0,25.3,0,38.6c-3.5,1.1-6.7,2.6-10,3c-12.9,1.3-25.9,2.1-38.8,3.4
		c-5.5,0.5-10.9,1.6-16.3,2.4c-1.4,0.2-2.8,0.2-5,0.4C713.1,362.4,713.9,360.5,714.9,358.3z"/>
	<path d="M1056.1,378.4c-3.2,0.6-6.2,1.1-9.3,1.6c-0.8,0.1-2,0.3-2.4-0.2c-2.1-2.1-4.4-0.8-6.5-0.5c-7.2,1.1-14.2,1.7-21.5,0.5
		c-4.2-0.7-8.6,0.1-12.9,0.2c-2.1,0-4.2,0-6.1,0c-3.5-10.8-2-20.8,1.5-30.7c5.9-16.7,12.2-33.3,18-50.1c3.3-9.7,5.9-19.7,8.7-29.6
		c0.3-1.1,0.2-2.3,0.3-3.5c-5-3.6-10.6-3.2-15.9-1.9c-5,1.2-9.1-0.3-13.3-2.5c0-3.8,0-7.5,0-11.5c3.1,0,5.7,0,8.6,0
		c5.2-12.4,10.5-24.7,15.7-37.1c8.7-20.8,17.2-41.7,26-62.6c1.5-3.7,3.7-7,5.6-10.5c2.1-3.8,5.3-5.3,9.6-4.8
		c3.8,0.4,7.6,1.2,11.4,1.2c13.7,0.2,27.3,0.2,41,0.3c1.9,0,4,0.3,5.8,1.1c4.2,1.9,4.7,4.5,2.6,8.1c5.2,16.5,10.1,32.5,14.7,48.6
		c4.7,16.2,10.3,32.2,12.2,49.5c5.5,1.1,10.6,2.6,15.8,3.1c5.1,0.5,10.3,0.1,15.5,0.1c1.5,3.2,2.7,6.1,4.2,9.2
		c-2.7,1.6-5,3.1-7.6,4.6c1.6,10.1,4.5,19.7,8.2,29.1c7.6,19,15.6,37.7,22.9,56.8c3.5,9,5.8,18.3,8.5,27.6c0.3,1,0,2.2,0,4.1
		c-2.9,0.7-5.7,2.1-8.5,2.1c-15.3,0.1-30.6-0.2-45.9,0c-7.9,0.1-13.3-3.7-17-10.2c-4.1-7-8-14.2-12.4-22.1c-2.4-0.5-5.5-1.5-8.5-1.5
		c-17.5-0.2-35-0.2-52.5-0.3c-0.5,0-1,0.2-2.3,0.4C1064.8,356.8,1061.4,367.8,1056.1,378.4z M1115.8,284.3c-0.4-2.6-0.4-4.5-1-6.1
		c-1.6-4.3-3-8.8-5.4-12.6c-2.6-4-10.6-3.5-13.5,0.4c-4,5.4-6.6,11.4-7,18.5c2.7,2.2,5.8,1.4,8.9,1.1c3.9-0.5,7.9-0.9,11.8-1.2
		C1111.6,284.2,1113.6,284.3,1115.8,284.3z M1083.9,243.9c-0.3-5.2-0.7-9.3-4.6-12.6c-4,3.9-4.8,8.6-5.2,14.4
		C1077.5,245.1,1080.3,244.6,1083.9,243.9z"/>
	<path d="M863.3,363.7c-5.8-0.5-10.1-4.4-14.9-7.4c-9.8-6.1-18.7-13.3-26.4-21.9c-1.8-2-3.3-4.7-3.8-7.3
		c-2.4-11.5-2.7-12.1-12.4-19.2c-1-11.4-2-23.1-3-34.8c-0.5-6.1-0.8-12.3-1.6-18.3c-1-8.2,1-15.9,3-23.6c3.4-13,8-25.6,15.2-37.2
		c7.7-12.3,17.2-22.7,29.5-30.7c10.5-6.8,21-13.4,32.7-18c1.7-0.7,3.4-1.2,5.1-1.9c2.6-1.1,5.1-1.2,7.6,0.5c1.1,0.7,2.4,1,4.2,1.8
		c5.8-5.2,12.7-4.1,19.9-2.9c12.3,2,24.7,2.8,36.5,7.3c1.6,0.6,3.8-0.2,5.6-0.7c1.4-0.4,2.6-1.4,4.1-2.2c3.3,3.8,6.5,7.5,9.8,11.3
		c0.4-0.3,0.7-0.7,1.1-1c0.1,1.5,0.2,3,0.4,4.8c2.1,1,4.4,2,7.2,3.2c1.3,2.8,2.8,6.1,3.8,8.3c-5.1,8.9-9.4,16.9-14.2,24.7
		c-2.2,3.6-5.2,6.9-8,10.1c-2.9,3.3-6.7,3.5-10.5,2.2c-3.6-1.2-7.2-2.6-10.6-4.2c-3.1-1.5-5.9-2-8.9,0.1c-0.7,0.5-1.9,0.4-2.9,0.5
		c-2.1-1.7-4.2-3.3-6.2-4.9c-11.3-1.6-21.6,1.2-31.1,6.9c-4.1,2.5-8,5.3-11.9,8.2c-11.9,8.9-17.5,21.1-17.5,35.8
		c0,6.6,0.2,13.3,1.3,19.9c1.8,11.2,8.6,19.2,17.9,25.3c7.7,5.1,16.3,8.2,25.1,10.6c4.5,1.2,9.4,1.2,14.2,1.7
		c0.8-7.2,3.6-13.5,2.2-19.8c-3.4,0-6.5,0.1-9.6,0c-4.3-0.1-6.7-2.3-6.8-6.7c-0.2-9-0.2-18-0.3-27c0-4,0-7.9,0-12.3
		c5.6-0.6,10.9-1.3,16.1-1.6c9.3-0.5,18.6-1,27.9,0.8c2.7,0.5,5.6-0.1,8.4-0.3c5.5-0.4,10.9-0.8,16.5-1.2c4.3,4.9,5.3,10.7,5.6,16.4
		c0.7,14.1,1.3,28.3,1.1,42.4c-0.1,6.7-1.7,13.5-3.1,20.1c-1.5,7.1-1.5,13.8,2.9,20c0.3,0.4,0.3,0.9,0.7,2.2
		c-1.2,1.4-2.4,3.6-4.2,4.8c-10.3,6.8-20.5,13.6-31.1,19.8c-8.4,5-17.8,5.7-27.4,5c-4.1-0.3-8.3-0.2-12.4-0.2
		c-7.5-0.1-15.1,0.7-22.4-0.4c-7.1-1.1-14-3.9-20.9-6.2C865.5,366.3,864.6,364.8,863.3,363.7z"/>
	<path d="M188.8,204.9c2.7-0.8,4.8-1.8,7-2c4.1-0.4,8.3-0.1,12.5-0.3c3.8-0.2,7.5-0.6,11.2-0.9c0.7-3.4-0.6-4.2-3.1-4.2
		c-2.7-0.1-5.3-0.1-7.9-0.5c-5.2-0.7-8.8-3.9-9.6-8.9c-1.4-8.6-4.8-15.9-9.8-23c-3.6-5.2-5.7-11.5-6.4-18.1
		c3.1-3.9,7.3-4.1,11.5-3.4c7.7,1.3,15.3,0.5,22.9-0.7c2.6-0.4,5.2-1.3,7.8-1.4c8.6-0.4,16,4.5,18.9,12.6c1.3,3.6,2.5,6.9,5.4,9.8
		c2.4,2.5,3.4,6.4,4.9,9.7c2.3,5.1,5,10.2,6.8,15.5c2.9,8.7,2.6,8.8-4.3,14.2c-0.5,0.4-1,0.9-1.5,1.3c0,7.3,3.4,14.5,9.2,18.6
		c1.5-1.7,3.3-3.4,4.6-5.4c1.4-2.1,2.2-4.4,3.4-6.7c1.7-3.3,4.2-5,8-4.7c1.8,0.1,3.7,0.1,5.5,0c2.7-0.1,4.9-1,6.2-3.8
		c-0.7-1.4-1.4-2.8-2.2-4.7c5.6-17.4,11.2-35.1,16.9-53c1.4-0.3,2.9-0.8,4.3-0.9c8.3-0.6,16.7-2.3,24.9-1.5c7.6,0.8,14.9,0,22.3-0.7
		c2.3-0.2,4.6-0.4,7-0.5c1,0,2.3-0.1,2.9,0.4c5,4.5,11.3,3.3,17,4.2c4.7,0.7,9.5,1.2,14.3,1.3c2.1,0,4.3,0.2,6.6-0.7
		c6.6-2.5,13.5-1.2,20.2-0.1c9.6,1.6,9.7,1.8,9.8,11.8c0,3.1-0.5,6.3-0.5,9.4c0.1,21.1,0.4,42.2,0.5,63.3c0,3.9-0.7,7.9-1.1,12.2
		c-8.6,1.2-16.7,2.7-24.9,3.5c-6.3,0.5-12.7-0.1-19,0.1c-5,0.2-9.9,0.9-14.8,1.2c-3.1,0.2-6.2,0-9.7,0c-0.4-3.2-1.1-6.1-1.2-9
		c-0.6-17.3-1-34.6-1.5-51.9c-0.4-11.6,0.4-22.9,5-33.7c0.5-1.2,0.6-2.5,0.3-4.1c-1.4,2.6-2.7,5.2-4.1,7.9c-1.4,2.8-3,5.6-4.3,8.4
		c-3.7,8.5-7.3,17.1-10.9,25.7c-0.1,0.3-0.2,0.6-0.3,0.9c-5,11.5-5,11.5-17,15c-0.8,0.2-1.5,0.7-2.5,1.2c0.6,1.4,1.2,2.7,1.9,4.1
		c-7,17.6-14,35.1-21,52.7c-4.6,11.6-9.3,23.1-13.5,34.8c-1.5,4.3-2.2,9.1-2.5,13.6c-0.9,12.9,1.2,25.5,3.8,38.1
		c1.2,6,1.1,11.9-1.2,17.7c-1.1,2.7-2.7,5-6,5.3c-5,0.4-9.9,0.8-14.9,1.2c-2.3,0.2-4.6,0.5-6.8,0.8c-5.3,0.8-10.4,1.5-15.8-0.2
		c-3.1-1-6.6-0.7-9.7,1.1c-1.1,0.7-2.3,1.2-3.5,1.7c-3.4-1.8-4.8-4.4-4.8-8.1c-0.1-8.3-0.6-16.6-0.9-24.9c-0.1-1.3-0.4-2.9,0.1-4
		c2.8-5.6,0.1-11-0.2-16.5c-0.4-5.8-0.9-11.6-0.7-17.4c0.2-5.9-0.3-11.3-4.9-15.5c-0.5-0.4-1.1-1-1.2-1.6c-1.4-8.8-7.7-15.2-11-23.1
		c-3.3-8-7.5-15.6-11.3-23.4c-4.3-8.8-8.6-17.6-12.6-26.6C191.4,214.1,190.4,209.8,188.8,204.9z"/>
	<path d="M564.4,152.1c-0.7,3.7-1.9,7.5-2.2,11.4c-0.6,7.4-1,14.9-0.8,22.3c0.2,5.8,1.6,11.5,2.2,17.3c0.2,2.4-0.5,4.9-0.8,7.3
		c-0.2,2.1-0.5,4.3-0.3,6.4c0.4,4,1.1,7.9,1.8,12.1c1.7,1.2,3.6,2.4,5.6,3.8c-0.2,0.8-0.1,1.7-0.5,2.1c-4.2,4.6-4.6,10-4.2,15.8
		c0.6,7.8,0.9,15.6,1.6,23.4c0.2,2.4,1.2,4.7,2,7.7c-4.5,3.6-3.4,9.1-3.7,14.4c-1,16.4-4.5,31.9-16.5,44.3c-1.3,1.3-2.6,2.5-3.9,3.6
		c-2.1-0.2-3.9-0.3-6-0.5c-0.3,1.2-0.6,2.3-0.8,3.4c-0.2,1.1-0.2,2.3-0.3,3.9c-3,2.3-6,4.8-9.3,7c-1,0.7-2.5,0.7-3.7,0.7
		c-1.5-0.1-2.9-0.6-4.1-0.8c-4.9,9.4-13.5,12.3-22.8,13.6c-3.9,0.5-7.9-0.7-11.6,1.7c-1,0.6-2.6,0.3-3.9,0.3
		c-14.2,0-28.3,0.1-42.5-0.2c-6.9-0.1-13-3.6-19.2-6.4c-10.2-4.6-19.6-10.5-27.5-18.5c-6.6-6.7-12.5-13.9-16.6-22.5
		c-3.5-7.2-6.4-14.5-7.6-22.4c-0.5-3.1-0.9-6.3-0.9-9.4c-0.1-10-0.1-20-0.1-30c0-1.5,0.3-2.9,0.4-4.4c7.3-3.2,14,0.2,21.4,1.2
		c0.9-1.3,2-2.7,3.5-4.6c13.9,0,28,0,42.3,0c0.2,0.6,0.5,1.3,0.6,2.1c0.7,10.5,1,21,2.2,31.4c0.6,5.5,2.6,11,7.9,14.3
		c5.2,3.3,10.4,6.6,15.6,9.8c3.4,2.1,6.9,2.4,10.3,0.2c5.9-3.7,11.8-7.3,17.5-11.3c2.7-1.9,4.5-4.7,5-8.2c0.9-5.4,2.4-10.7,3.4-16.1
		c1.1-6-0.3-11.9-2.5-17.9c1.5-0.7,2.9-1.4,4.3-2.1c0.1-0.3,0.4-0.6,0.4-0.9c-1-7.2,3.3-10.9,9-13.1c3.8-1.5,8-2,12-2.8
		c1.6-0.3,3.2,0,4.9-0.5c-2.9-2.4-6.4-2.6-9.7-2.1c-4.6,0.8-9,2.2-13.6,3.1c-5.1,1-6.7-0.1-8-5.3c1.5-1.2,3.1-2.5,5-4
		c-1.1-0.7-2.1-1.4-2.8-1.8c0-3.3,0.2-6.2,0-9.2c-0.2-2.8-0.6-5.6-1.3-8.2c-1.1-3.9-0.8-7.6,0.4-11.3c1.2-3.8,1.2-7.3-0.2-11.2
		c-1.2-3.5-1.6-7.5-1.7-11.3c-0.2-7.8-0.1-15.7,0.1-23.5c0.1-2.1,0.8-4.3,1.8-6.1c2.2-4.2,4.6-5.1,9.1-3.6c3.6,1.2,6.8,1.5,10.5,0.1
		c2.5-1,5.8,0,8.8,0.2c1.6,0.1,3.3,1,4.8,0.7c5.2-1,10.3-2.2,15.4-3.6c5-1.4,9.2,0.3,13.2,2.8C559.8,147.8,561.5,149.7,564.4,152.1z
		"/>
</g>
</svg>
