<?xml version="1.0" encoding="utf-8"?>
<!-- Generator: Adobe Illustrator 22.0.1, SVG Export Plug-In . SVG Version: 6.00 Build 0)  -->
<svg version="1.1" id="Capa_1" xmlns="http://www.w3.org/2000/svg" xmlns:xlink="http://www.w3.org/1999/xlink" x="0px" y="0px"
	 viewBox="0 0 71 71" style="enable-background:new 0 0 71 71;" xml:space="preserve">
<style type="text/css">
	.st0{filter:url(#Adobe_OpacityMaskFilter);}
	.st1{fill:#FFFFFF;}
	.st2{fill:none;stroke:#000000;stroke-width:2.1837;stroke-miterlimit:10;}
	.st3{fill:#5B75B3;}
	.st4{fill-rule:evenodd;clip-rule:evenodd;fill:#5B75B3;}
	.st5{fill:#D43B35;}
	.st6{fill:#D55447;}
	.st7{fill:#725744;}
	.st8{fill-rule:evenodd;clip-rule:evenodd;fill:#725744;}
	.st9{fill:#5B9529;}
	.st10{fill-rule:evenodd;clip-rule:evenodd;fill:#5B9529;}
	.st11{fill-rule:evenodd;clip-rule:evenodd;fill:#D43B35;}
	.st12{fill:#E0E0E0;}
	.st13{fill-rule:evenodd;clip-rule:evenodd;fill:#E0E0E0;}
	.st14{fill:none;stroke:#E0E0E0;stroke-width:2;stroke-miterlimit:10;}
	.st15{fill:none;stroke:#505050;stroke-width:3;stroke-miterlimit:10;}
	.st16{fill:#333333;}
	.st17{fill:none;stroke:#59544E;stroke-width:3;stroke-linecap:round;stroke-linejoin:round;stroke-miterlimit:10;}
	.st18{fill:none;stroke:#494949;stroke-width:6;stroke-miterlimit:10;}
	.st19{fill:#494949;}
	.st20{fill:#606060;}
	.st21{fill-rule:evenodd;clip-rule:evenodd;fill:#606060;}
	.st22{fill:none;stroke:#000000;stroke-width:4.1696;stroke-miterlimit:10;}
	.st23{fill-rule:evenodd;clip-rule:evenodd;fill:#FFFFFF;}
</style>
<g>
	<path d="M46.8,8.3c0.3,0,0.6,0,0.9,0c0.4,0.5,0.9,1,1.2,1.6c0.5,1,0.8,2,1.3,3c0.6,1.5,0.5,2.1-0.9,3c-9,5.5-18,11-26.9,16.5
		c-0.6,0.3-1.1,0.8-1.9,1.3c0.8,0,1.2,0,1.6,0c11,0,22,0,32.9,0c1.9,0,2.4,0.5,2.4,2.3c0,7.5,0,15,0,22.5c0,1-0.3,1.8-1.3,2.2
		c-12.6,0-25.3,0-37.9,0c-1-0.5-1.2-1.2-1.2-2.3c0-7-0.1-14,0.1-20.9c0.1-2.8-0.5-4.9-2.6-6.7c-1.2-1.1-1-2.2,0.4-3
		C25.5,21.3,36.1,14.8,46.8,8.3z M31.6,35.7c-2.4,0-4.4,0-6.4,0c-0.2,0-0.5,0.1-0.6,0.2c-1.6,1.6-3.1,3.1-4.9,4.9c2.3,0,4.3,0,6.3,0
		c0.3,0,0.6-0.2,0.8-0.4C28.4,38.9,29.9,37.4,31.6,35.7z M31.5,40.7c2.4,0,4.5,0,6.5,0c0.2,0,0.4-0.1,0.5-0.2c1.5-1.6,3-3.3,4.5-4.8
		c-1.9,0-4,0-6.1,0c-0.2,0-0.4,0.1-0.5,0.2C34.8,37.4,33.3,39,31.5,40.7z M55.2,36.2c-0.1-0.2-0.3-0.4-0.4-0.5c-2,0-3.9,0-5.9,0
		c-0.2,0-0.5,0-0.6,0.2c-1.6,1.6-3.1,3.1-4.9,4.9c2.4,0,4.4,0,6.4,0c0.3,0,0.6-0.2,0.8-0.4C52.2,39,53.7,37.6,55.2,36.2z M47.3,9.3
		c-2,1.3-3.9,2.5-5.7,3.6c-0.2,0.1-0.3,0.3-0.4,0.4c-0.3,1.8-0.6,3.6-1,5.6c2.1-1.3,3.9-2.5,5.7-3.6c0.3-0.2,0.5-0.5,0.6-0.8
		C46.8,12.8,47,11.2,47.3,9.3z M25.5,22.8c-2.1,1.3-3.9,2.5-5.8,3.7c-0.2,0.1-0.3,0.3-0.4,0.5c-0.3,1.7-0.6,3.4-0.9,5.4
		c2-1.3,3.8-2.4,5.6-3.6c0.2-0.2,0.5-0.4,0.6-0.7C24.9,26.4,25.2,24.7,25.5,22.8z M29.5,25.5c2.1-1.3,3.9-2.4,5.7-3.6
		c0.2-0.1,0.4-0.3,0.4-0.5c0.4-1.7,0.7-3.5,1.1-5.5c-2.1,1.3-3.9,2.4-5.7,3.6c-0.2,0.1-0.4,0.4-0.5,0.6
		C30.2,21.8,29.9,23.5,29.5,25.5z"/>
</g>
</svg>
