<?xml version="1.0" encoding="utf-8"?>
<!-- Generator: Adobe Illustrator 22.0.1, SVG Export Plug-In . SVG Version: 6.00 Build 0)  -->
<svg version="1.1" id="Capa_1" xmlns="http://www.w3.org/2000/svg" xmlns:xlink="http://www.w3.org/1999/xlink" x="0px" y="0px"
	 viewBox="0 0 71 71" style="enable-background:new 0 0 71 71;" xml:space="preserve">
<style type="text/css">
	.st0{filter:url(#Adobe_OpacityMaskFilter);}
	.st1{fill:#FFFFFF;}
	.st2{fill:none;stroke:#000000;stroke-width:2.1837;stroke-miterlimit:10;}
	.st3{fill:#5B75B3;}
	.st4{fill-rule:evenodd;clip-rule:evenodd;fill:#5B75B3;}
	.st5{fill:#D43B35;}
	.st6{fill:#D55447;}
	.st7{fill:#725744;}
	.st8{fill-rule:evenodd;clip-rule:evenodd;fill:#725744;}
	.st9{fill:#5B9529;}
	.st10{fill-rule:evenodd;clip-rule:evenodd;fill:#5B9529;}
	.st11{fill-rule:evenodd;clip-rule:evenodd;fill:#D43B35;}
	.st12{fill:#E0E0E0;}
	.st13{fill-rule:evenodd;clip-rule:evenodd;fill:#E0E0E0;}
	.st14{fill:none;stroke:#E0E0E0;stroke-width:2;stroke-miterlimit:10;}
	.st15{fill:none;stroke:#505050;stroke-width:3;stroke-miterlimit:10;}
	.st16{fill:#333333;}
	.st17{fill:none;stroke:#59544E;stroke-width:3;stroke-linecap:round;stroke-linejoin:round;stroke-miterlimit:10;}
	.st18{fill:none;stroke:#494949;stroke-width:6;stroke-miterlimit:10;}
	.st19{fill:#494949;}
	.st20{fill:#606060;}
	.st21{fill-rule:evenodd;clip-rule:evenodd;fill:#606060;}
	.st22{fill:none;stroke:#000000;stroke-width:4.1696;stroke-miterlimit:10;}
	.st23{fill-rule:evenodd;clip-rule:evenodd;fill:#FFFFFF;}
</style>
<g>
	<g id="_x32__2_">
		<g>
			<path d="M42.9,37H28.1c-0.8,0-1.5,0.7-1.5,1.5s0.7,1.5,1.5,1.5h14.9c0.8,0,1.5-0.7,1.5-1.5S43.8,37,42.9,37z M45.9,28.1H25.1
				c-0.8,0-1.5,0.7-1.5,1.5s0.7,1.5,1.5,1.5h20.8c0.8,0,1.5-0.7,1.5-1.5S46.7,28.1,45.9,28.1z M35.5,11.7
				c-13.1,0-23.8,9.3-23.8,20.8c0,6.6,3.5,12.4,8.9,16.2v10.5L31,53c1.4,0.2,2.9,0.4,4.5,0.4c13.1,0,23.8-9.3,23.8-20.8
				S48.6,11.7,35.5,11.7z M35.5,50.4c-1.7,0-3.4-0.2-5-0.5l-7,4.2l0.1-6.9c-5.4-3.2-8.9-8.6-8.9-14.6c0-9.9,9.3-17.9,20.8-17.9
				s20.8,8,20.8,17.9S47,50.4,35.5,50.4z"/>
		</g>
	</g>
</g>
</svg>
