<?xml version="1.0" encoding="utf-8"?>
<!-- Generator: Adobe Illustrator 22.0.1, SVG Export Plug-In . SVG Version: 6.00 Build 0)  -->
<svg version="1.1" id="Capa_1" xmlns="http://www.w3.org/2000/svg" xmlns:xlink="http://www.w3.org/1999/xlink" x="0px" y="0px"
	 viewBox="0 0 71 71" style="enable-background:new 0 0 71 71;" xml:space="preserve">
<style type="text/css">
	.st0{filter:url(#Adobe_OpacityMaskFilter);}
	.st1{fill:#FFFFFF;}
	.st2{fill:none;stroke:#000000;stroke-width:2.1837;stroke-miterlimit:10;}
	.st3{fill:#5B75B3;}
	.st4{fill-rule:evenodd;clip-rule:evenodd;fill:#5B75B3;}
	.st5{fill:#D43B35;}
	.st6{fill:#D55447;}
	.st7{fill:#725744;}
	.st8{fill-rule:evenodd;clip-rule:evenodd;fill:#725744;}
	.st9{fill:#5B9529;}
	.st10{fill-rule:evenodd;clip-rule:evenodd;fill:#5B9529;}
	.st11{fill-rule:evenodd;clip-rule:evenodd;fill:#D43B35;}
	.st12{fill:#E0E0E0;}
	.st13{fill-rule:evenodd;clip-rule:evenodd;fill:#E0E0E0;}
	.st14{fill:none;stroke:#E0E0E0;stroke-width:2;stroke-miterlimit:10;}
	.st15{fill:none;stroke:#505050;stroke-width:3;stroke-miterlimit:10;}
	.st16{fill:#333333;}
	.st17{fill:none;stroke:#59544E;stroke-width:3;stroke-linecap:round;stroke-linejoin:round;stroke-miterlimit:10;}
	.st18{fill:none;stroke:#494949;stroke-width:6;stroke-miterlimit:10;}
	.st19{fill:#494949;}
	.st20{fill:#606060;}
	.st21{fill-rule:evenodd;clip-rule:evenodd;fill:#606060;}
	.st22{fill:none;stroke:#000000;stroke-width:4.1696;stroke-miterlimit:10;}
	.st23{fill-rule:evenodd;clip-rule:evenodd;fill:#FFFFFF;}
</style>
<path d="M32.7,47.2c-2.5,1.7-4.9,3.4-7.3,5c-0.4,0.3-0.8,0.5-1.1,0.8c-0.7,0.5-1.3,0.3-1.5-0.6c-1.2-4.6-2.4-9.3-3.6-13.9
	c-0.4-1.5-0.8-3-1.2-4.5c-0.1-0.3-0.3-0.6-0.5-0.8c-2.1-1.9-4.1-3.8-6.2-5.7c-0.3-0.3-0.7-0.6-0.5-1.1c0.2-0.5,0.6-0.6,1-0.7
	c7.4-1.3,14.9-2.5,22.3-3.8c6.2-1,12.4-2.1,18.6-3.1c2.1-0.4,4.2-0.7,6.3-1.1c0.5-0.1,0.9-0.1,1.2,0.3c0.3,0.5,0,0.9-0.2,1.3
	C54,27.9,48.1,36.5,42.1,45c-1.3,1.9-2.6,3.8-4,5.7c-0.6,0.8-1.1,0.9-1.8,0.1C35.2,49.7,34,48.5,32.7,47.2z M56.2,21.8
	C56.2,21.8,56.2,21.8,56.2,21.8c-9.3,5.8-18.5,11.7-27.6,17.6c3,3,6,6,9,9.1C43.8,39.6,50,30.7,56.2,21.8z M52.5,22
	C52.5,22,52.5,22,52.5,22c-10.7,3.7-21.4,7.5-32.1,11.3c1.3,4.9,2.6,9.8,3.8,14.6c0,0,0.1,0,0.1,0c0.6-2.7,1.3-5.5,1.9-8.2
	c0.1-0.6,0.4-1,1-1.4c8.3-5.3,16.5-10.6,24.8-16C52.2,22.3,52.3,22.2,52.5,22z M14.4,27c0,0.1,0,0.1-0.1,0.2
	c0.1,0.1,0.3,0.2,0.4,0.3c1.4,1.3,2.9,2.6,4.3,3.9c0.4,0.3,0.7,0.4,1.1,0.2c8.1-2.9,16.3-5.8,24.4-8.7c1.7-0.6,3.4-1.2,5-1.8
	c0,0,0-0.1,0-0.1C37.9,23,26.1,25,14.4,27z M25.6,49.8c2.2-1.5,4.3-3,6.4-4.3c-1.5-1.5-2.9-2.9-4.3-4.4C27,44,26.3,46.8,25.6,49.8z"
	/>
</svg>
