<?xml version="1.0" encoding="utf-8"?>
<!-- Generator: Adobe Illustrator 22.0.1, SVG Export Plug-In . SVG Version: 6.00 Build 0)  -->
<svg version="1.1" id="Capa_1" xmlns="http://www.w3.org/2000/svg" xmlns:xlink="http://www.w3.org/1999/xlink" x="0px" y="0px"
	 viewBox="0 0 71 71" style="enable-background:new 0 0 71 71;" xml:space="preserve">
<style type="text/css">
	.st0{filter:url(#Adobe_OpacityMaskFilter);}
	.st1{fill:#FFFFFF;}
	.st2{fill:none;stroke:#000000;stroke-width:2.1837;stroke-miterlimit:10;}
	.st3{fill:#5B75B3;}
	.st4{fill-rule:evenodd;clip-rule:evenodd;fill:#5B75B3;}
	.st5{fill:#D43B35;}
	.st6{fill:#D55447;}
	.st7{fill:#725744;}
	.st8{fill-rule:evenodd;clip-rule:evenodd;fill:#725744;}
	.st9{fill:#5B9529;}
	.st10{fill-rule:evenodd;clip-rule:evenodd;fill:#5B9529;}
	.st11{fill-rule:evenodd;clip-rule:evenodd;fill:#D43B35;}
	.st12{fill:#E0E0E0;}
	.st13{fill-rule:evenodd;clip-rule:evenodd;fill:#E0E0E0;}
	.st14{fill:none;stroke:#E0E0E0;stroke-width:2;stroke-miterlimit:10;}
	.st15{fill:none;stroke:#505050;stroke-width:3;stroke-miterlimit:10;}
	.st16{fill:#333333;}
	.st17{fill:none;stroke:#59544E;stroke-width:3;stroke-linecap:round;stroke-linejoin:round;stroke-miterlimit:10;}
	.st18{fill:none;stroke:#494949;stroke-width:6;stroke-miterlimit:10;}
	.st19{fill:#494949;}
	.st20{fill:#606060;}
	.st21{fill-rule:evenodd;clip-rule:evenodd;fill:#606060;}
	.st22{fill:none;stroke:#000000;stroke-width:4.1696;stroke-miterlimit:10;}
	.st23{fill-rule:evenodd;clip-rule:evenodd;fill:#FFFFFF;}
</style>
<g>
	<path d="M57.7,40.2c-0.1,2.3-0.2,4.5-0.3,6.8c-0.1,1.9-0.9,3.4-2.8,4.1c-1.1,0.4-2,0.2-2-1.2c0-2.4,0-4.7,0-7.1c0-0.4,0.2-1,0.4-1
		c2.3-0.4,1.5-2.2,1.6-3.5c0.2-3.8-0.1-7.5-1.8-10.9C49,19.5,40.4,15.1,32.1,16.7c-9.2,1.9-15.4,9.1-15.8,18.4c-0.1,1.5,0,2.9,0,4.4
		c0,1-0.2,2,1.3,2.1c0.3,0,0.8,0.8,0.8,1.3c0.1,2.4,0.1,4.7,0,7.1c0,1.7-1,1.7-2.2,1.2c-1.9-0.9-2.9-2.4-2.9-4.4
		c0-4.9-0.3-9.9,0.3-14.7c1.4-11,11.2-18.9,22.6-18.7c10.9,0.3,20.1,8.8,21.2,19.7c0.2,2.3,0,4.7,0,7.1
		C57.6,40.2,57.6,40.2,57.7,40.2z"/>
	<path d="M19.6,46.4c0-1.9,0-3.7,0-5.6c0-3,2.1-5.1,4.9-5.2c2.9,0,5,2,5,5c0,3.5,0,7.1,0,10.6c0,0.8-0.1,1.6-0.3,2.3
		c-0.6,2.4-2.6,4-4.5,3.9c-2.5-0.1-4.6-2.1-5-4.7c0-0.2,0-0.4,0-0.6c0-2,0-3.9,0-5.9C19.7,46.4,19.7,46.4,19.6,46.4z"/>
	<path d="M51.2,46.7c0,1.9,0.1,3.7,0,5.6c-0.2,3.3-2,5.2-4.8,5.3c-2.7,0-4.6-1.7-4.8-4.9c-0.2-4.1-0.3-8.2-0.2-12.3
		c0.1-2.7,2.1-4.6,4.7-4.7c2.7-0.1,4.9,1.8,5.1,4.6c0.2,2.1,0,4.3,0,6.5C51.3,46.7,51.2,46.7,51.2,46.7z"/>
</g>
</svg>
