<?xml version="1.0" encoding="utf-8"?>
<!-- Generator: Adobe Illustrator 22.0.1, SVG Export Plug-In . SVG Version: 6.00 Build 0)  -->
<svg version="1.1" id="Capa_1" xmlns="http://www.w3.org/2000/svg" xmlns:xlink="http://www.w3.org/1999/xlink" x="0px" y="0px"
	 viewBox="0 0 71 71" style="enable-background:new 0 0 71 71;" xml:space="preserve">
<style type="text/css">
	.st0{filter:url(#Adobe_OpacityMaskFilter);}
	.st1{fill:#FFFFFF;}
	.st2{fill:none;stroke:#000000;stroke-width:2.1837;stroke-miterlimit:10;}
	.st3{fill:#5B75B3;}
	.st4{fill-rule:evenodd;clip-rule:evenodd;fill:#5B75B3;}
	.st5{fill:#D43B35;}
	.st6{fill:#D55447;}
	.st7{fill:#725744;}
	.st8{fill-rule:evenodd;clip-rule:evenodd;fill:#725744;}
	.st9{fill:#5B9529;}
	.st10{fill-rule:evenodd;clip-rule:evenodd;fill:#5B9529;}
	.st11{fill-rule:evenodd;clip-rule:evenodd;fill:#D43B35;}
	.st12{fill:#E0E0E0;}
	.st13{fill-rule:evenodd;clip-rule:evenodd;fill:#E0E0E0;}
	.st14{fill:none;stroke:#E0E0E0;stroke-width:2;stroke-miterlimit:10;}
	.st15{fill:none;stroke:#505050;stroke-width:3;stroke-miterlimit:10;}
	.st16{fill:#333333;}
	.st17{fill:none;stroke:#59544E;stroke-width:3;stroke-linecap:round;stroke-linejoin:round;stroke-miterlimit:10;}
	.st18{fill:none;stroke:#494949;stroke-width:6;stroke-miterlimit:10;}
	.st19{fill:#494949;}
	.st20{fill:#606060;}
	.st21{fill-rule:evenodd;clip-rule:evenodd;fill:#606060;}
	.st22{fill:none;stroke:#000000;stroke-width:4.1696;stroke-miterlimit:10;}
	.st23{fill-rule:evenodd;clip-rule:evenodd;fill:#FFFFFF;}
</style>
<g>
	<g>
		<path d="M36.5,35.7c0,5.5,0,11.1,0,16.6c0,0.5,0.1,1.1,0,1.6c-0.1,0.5-0.2,1.2-0.5,1.3c-0.3,0.1-1-0.2-1.3-0.5
			c-1.5-1.3-2.8-3-4.5-4.1c-4.1-2.8-5.5-6.5-4.9-11.5c0.4-4,0-8.1,0.2-12.1c0-1,0.6-2.2,1.3-2.9c2.3-2.4,4.8-4.6,7.3-6.9
			c0.6-0.6,1.4-0.9,2.1-1.4c0.2,0.9,0.6,1.8,0.6,2.7c0,3.8,0,7.6,0,11.3C36.5,31.8,36.5,33.7,36.5,35.7
			C36.5,35.7,36.5,35.7,36.5,35.7z"/>
		<path d="M23.8,35.6c0,2.5,0,5.1,0,7.6c0,1.4-0.4,2.1-2.1,1.7c-5.9-1.4-4.8-0.4-4.9-6c-0.1-3.2,0.1-6.3,0-9.5c0-1.5,0.5-2.3,2-2.5
			c5.4-1,5-1.8,5,3.9C23.8,32.4,23.8,34,23.8,35.6C23.8,35.6,23.8,35.6,23.8,35.6z"/>
		<path d="M56.2,35.6c-0.1,5.1-1.8,9.6-5.2,13.4c-0.5,0.5-1,1.1-1.6,1.3c-0.6,0.1-1.4-0.1-1.8-0.5c-0.3-0.3-0.3-1.1-0.2-1.7
			c0.1-0.5,0.6-0.8,1-1.2c5.9-7,6-15.7,0.1-22.6c-0.3-0.3-0.8-0.6-0.8-1c-0.1-0.7-0.3-1.7,0.1-2.1c0.4-0.4,1.4-0.4,2.1-0.2
			c0.5,0.1,0.9,0.8,1.3,1.2C54.3,25.8,56.2,30.7,56.2,35.6z"/>
		<path d="M48.4,35.9c-0.2,3.2-1.3,6-3.4,8.4c-0.8,0.9-1.9,1.6-3,0.6c-1-0.9-0.3-1.9,0.3-2.8c3.4-4.5,3.5-8.5,0-13
			c-0.7-0.9-1.4-1.8-0.3-2.7c1.2-1.1,2.1-0.3,2.9,0.6C47.3,29.5,48.4,32.5,48.4,35.9z"/>
	</g>
</g>
</svg>
