<?xml version="1.0" encoding="utf-8"?>
<!-- Generator: Adobe Illustrator 22.0.1, SVG Export Plug-In . SVG Version: 6.00 Build 0)  -->
<svg version="1.1" id="Capa_1" xmlns="http://www.w3.org/2000/svg" xmlns:xlink="http://www.w3.org/1999/xlink" x="0px" y="0px"
	 viewBox="0 0 71 71" style="enable-background:new 0 0 71 71;" xml:space="preserve">
<style type="text/css">
	.st0{filter:url(#Adobe_OpacityMaskFilter);}
	.st1{fill:#FFFFFF;}
	.st2{fill:none;stroke:#000000;stroke-width:2.1837;stroke-miterlimit:10;}
	.st3{fill:#5B75B3;}
	.st4{fill-rule:evenodd;clip-rule:evenodd;fill:#5B75B3;}
	.st5{fill:#D43B35;}
	.st6{fill:#D55447;}
	.st7{fill:#725744;}
	.st8{fill-rule:evenodd;clip-rule:evenodd;fill:#725744;}
	.st9{fill:#5B9529;}
	.st10{fill-rule:evenodd;clip-rule:evenodd;fill:#5B9529;}
	.st11{fill-rule:evenodd;clip-rule:evenodd;fill:#D43B35;}
	.st12{fill:#E0E0E0;}
	.st13{fill-rule:evenodd;clip-rule:evenodd;fill:#E0E0E0;}
	.st14{fill:none;stroke:#E0E0E0;stroke-width:2;stroke-miterlimit:10;}
	.st15{fill:none;stroke:#505050;stroke-width:3;stroke-miterlimit:10;}
	.st16{fill:#333333;}
	.st17{fill:none;stroke:#59544E;stroke-width:3;stroke-linecap:round;stroke-linejoin:round;stroke-miterlimit:10;}
	.st18{fill:none;stroke:#494949;stroke-width:6;stroke-miterlimit:10;}
	.st19{fill:#494949;}
	.st20{fill:#606060;}
	.st21{fill-rule:evenodd;clip-rule:evenodd;fill:#606060;}
	.st22{fill:none;stroke:#000000;stroke-width:4.1696;stroke-miterlimit:10;}
	.st23{fill-rule:evenodd;clip-rule:evenodd;fill:#FFFFFF;}
</style>
<path d="M53.2,16.6C53.2,16.6,53.2,16.6,53.2,16.6C53.2,16.6,53.3,16.6,53.2,16.6c0.1-0.2,0.1-0.3,0.1-0.3c0,0,0,0,0,0
	c0-0.1,0-0.2,0-0.3c0.4-1.5,0.6-3,1.3-4.3c-1.8,0.2-3.5,0.4-5.3,0.6C49.3,12.2,49.1,12,49,12h-5.8c-1.3,3.8-2.5,7.6-3.7,11.2
	c0.4,0.3,0.7,0.5,1.1,0.7c-0.7,0.5-1.3,0.8-1.9,1.2c-0.7-0.1-1.4-0.2-2-0.4c-1.2,1-1.2,3-3,3.8c-0.5-0.9-1-1.7-1.3-2.5
	c-0.7-1.7-0.6-1.9,1-3c0-1.7-0.6-3.3-1.5-4.7c-0.4-0.6-0.6-1.2-1.1-2.1c-0.1-0.1-0.6-0.4-0.9-0.7c0-2.2-0.7-2.9-3.7-3.7
	c-1.4,0.2-2.7,0.6-4,0.7c-1.3,0.1-2.6-0.2-3.9-0.2V15c0.2,0,0.5,0,0.7,0c0.1,0.6,0,1.3,0.4,1.6c1.3,1.4,1.5,3.1,1.9,4.8
	c1.4,1.3,1.4,1.3,3.8,1.2c0.1,0.4,0.2,0.8,0.2,1c-1.9,1.3-4-0.3-5.7,0.8c-0.4,1,0,1.8,0.4,2.6c0.9,1.8,1.9,3.6,2.8,5.4
	c1.2,2.6,2.3,5.3,3.7,7.7c0.4,0.6,0.2,1.4,0.7,1.9c1.1,0.9,1.2,2.2,1.1,3.4c-0.2,1.9,0.2,3.8,0.5,4.8v8.5c0.2,0.2,0.5,0.4,0.6,0.6
	c0.9-0.1,1.7-0.4,2.4-0.2c2.1,0.6,4-0.1,5.7-0.4c1.1,0.2,1.9,0.3,2.8,0.4c0.4-1.1,0.8-2.1,1.1-2.9c-0.6-2.9-1.3-5.6-1.1-8.5
	c0.1-1.9,0.2-3.6,0.9-5.3c2-4.9,4-9.8,5.9-14.7c0.2-0.6,0.4-1.2,0.6-1.8c-0.4-0.4-0.8-0.7-1.1-1c1.4-0.3,2.6-0.6,3.8-0.8
	c0.7-1.6,1.4-3.2,2-4.7c0.2-0.8,0.4-1.6,0.8-2.4C53.2,16.8,53.2,16.7,53.2,16.6z"/>
</svg>
