<svg xmlns="http://www.w3.org/2000/svg" viewBox="0 0 146.31 38.92"><defs><style>.cls-1{fill:#00cc9a;}</style></defs><g id="Capa_2" data-name="Capa 2"><g id="Capa_1-2" data-name="Capa 1"><path class="cls-1" d="M84.33,26.81a2.7,2.7,0,0,0,.22-2.16A18.87,18.87,0,0,1,84,19.46c.06-1.75,0-3.5,0-5.17l-.73-1,1-.36c0-3.6,0-7.17,0-10.76-1.5-.42-2.83-.76-4.13-1.16-.89-.28-1.75-.66-2.62-1H77l-1.6,1.26c0,1.22.07,2.55,0,3.86a9.09,9.09,0,0,0,1.11,5,1.13,1.13,0,0,1,.11.3l-.76,7.12a1.2,1.2,0,0,1-.65-.66c-.54-1.25-1.05-2.53-1.63-3.76-.31-.66-.76-1.25-1.26-2.07C72.4,10.26,71,6.68,69.5,4.4L63.32,6.1l.08.15L61.75,7.43l-1-.57-1.53.66c.35,2.51.69,4.88,1,7.27l-.7.13c-.24,4.58-.48,9-.73,13.64l.47.74A16.93,16.93,0,0,0,58.81,32c-.06,2.32,0,4.64,0,7h.86l1.28-.56.65-1.52c.08.76.13,1.17.19,1.76l6-.41a42.56,42.56,0,0,0-.31-9.74,32.76,32.76,0,0,1-.15-4.95l.37-.06c1.15,3.92,2.29,7.83,3.47,11.83,1.8.1,3.46-.68,5.34-.8l-.67,1,9.07-1c0-2.31,0-4.43,0-6.55C84.86,27.57,84.53,27.21,84.33,26.81Z"/><path class="cls-1" d="M145.37,35.45c-.32-1-.6-2-1-3-1.35-3.52-2.73-7-4.08-10.57a6,6,0,0,1-.25-1.16l1.08-.68-.38-1a10.66,10.66,0,0,1-4.53-.71,25.52,25.52,0,0,0-.46-2.56c-1.19-4.11-2.43-8.21-3.69-12.48h-1.26c-1.65,0-3.31,0-5,0-.64,0-1.28-.17-2.15-.28l-1.06.44-6.72,15.86-1.4-.22c0,.66.07,1.18.1,1.83a10.7,10.7,0,0,0,2.09.05,3.06,3.06,0,0,1,2.12.28,10.12,10.12,0,0,1-.65,3.27c-.89,2.58-1.85,5.13-2.76,7.7-.29.8-.55,1.61-.76,2.43a5,5,0,0,0,.08,2.89c2.74-.17,5.47.31,8.25-.32.66-1.52,1.29-3,2-4.58,3.07.15,6.18-.27,9.15.25.59,1.14,1.05,2.12,1.59,3.06a2.67,2.67,0,0,0,2.11,1.53,16.45,16.45,0,0,0,5.54-.26,3.14,3.14,0,0,0,2.93-.07v-.28C145.62,36.68,145.56,36,145.37,35.45ZM127.18,18.37l-1.79.65c.28-2.17.4-2.36,1.39-2.46.13.37.28.76.39,1.15A2.74,2.74,0,0,1,127.18,18.37Zm0,5.91,1.44-3.3h1.81a6.2,6.2,0,0,1,1.34,3.3Z"/><path class="cls-1" d="M27.48,4.46l0-.06h0l.09-.19v0a1.83,1.83,0,0,1,0-.21A12.68,12.68,0,0,1,28.69.6L24.52,1,24.19.78H19.61c-1,3-1.93,5.94-2.87,8.81l.85.57-1.47.93-1.57-.28c-1,.82-.92,2.36-2.36,3a22.08,22.08,0,0,1-1-2c-.55-1.29-.47-1.46.78-2.35a7.05,7.05,0,0,0-1.18-3.72c-.28-.47-.5-1-.87-1.69l-.74-.56c0-1.76-.54-2.28-2.89-2.9a26.72,26.72,0,0,1-3.17.51A26.7,26.7,0,0,1,0,.89V3.13l.54,0c.1.5,0,1,.28,1.28A6.84,6.84,0,0,1,2.3,8.19c1.06,1,1.06,1,3,.94l.17.77c-1.48,1-3.12-.22-4.49.66a2.14,2.14,0,0,0,.29,2C2,14,2.77,15.4,3.47,16.84c1,2,1.79,4.14,2.91,6.08.29.51.17,1.12.57,1.47A2.85,2.85,0,0,1,7.79,27a9.52,9.52,0,0,0,.41,3.78v6.71l.48.45a6.08,6.08,0,0,1,1.87-.15,9.47,9.47,0,0,0,4.51-.33l2.23.33.87-2.24a26.34,26.34,0,0,1-.89-6.71A12.51,12.51,0,0,1,18,24.69c1.55-3.85,3.12-7.7,4.67-11.55.19-.48.34-1,.5-1.43l-.9-.81,2.95-.66c.55-1.26,1.07-2.5,1.59-3.71a9.63,9.63,0,0,1,.66-1.87A.46.46,0,0,1,27.48,4.46Z"/><path class="cls-1" d="M37.1,5l-3.54,0c-.33,0-.66.07-1,0-.91-.06-2.62-.27-4-.42,0,.12-.09.24-.14.36a.44.44,0,0,1,.33.62c-.33.69-.7,1.36-1,2.06a.34.34,0,0,1-.34.19c0,.12.05.21,0,.22a11.35,11.35,0,0,1,.09,1.15,3.35,3.35,0,0,1-.24,1c.63,2.94.06,5.85.39,8.79,2.14,0,4.25,0,6.35-.11a20.67,20.67,0,0,0,3.09-.67c.42-1,.36-8.14-.05-10.37C37.19,7,37.72,6.16,37.1,5Z"/><path class="cls-1" d="M56.71,17.15l-1-.45c-.06-.79-.12-1.45-.18-2.12h0V5.17l-2-.75a5.23,5.23,0,0,1-4.11.41l-.93.52-1.43-.62-.85.92c0,1.54,0,3,0,4.38a11.83,11.83,0,0,0,.42,1.91c-.12.49-.3,1.22-.45,1.87l.49,1.24-.34,1.61,1,.2-1.17,1,.16.34c.57-.12,1.13-.25,1.7-.34a15.78,15.78,0,0,1,1.82-.17,3.09,3.09,0,0,1,1.65.45c-1.67.39-3.61-.06-4.67,1.82l.26.78-.51.78c.63,1.79-.28,3.31-.52,4.93A11.13,11.13,0,0,1,42,29.08l-3.26-2-1.06-1.91c.75-.9.08-1.8-.05-2.71.05-.69.1-1.38.15-2h-6l-.5.8c-1.07-.18-2-.81-3.11-.29-.17,4-.19,8,2.57,11.2A12.43,12.43,0,0,0,40,36.87l-.09-1.26.18,0,.78,1.27h4l.45-.6c1.59.53,2.83-.16,4-1v-.87l1.28.31,1.35-1c.11-.61-.21-1.29.61-1.49l.77.42c3.21-3.88,2.89-8.31,2.51-12.81L56,18Z"/><path class="cls-1" d="M97.37,15.85a10.31,10.31,0,0,1,7.2-3.53l1.14,1,.88-.43L109.65,14c2-1.12,2.11-3.4,3.48-4.85L113,7.82l-1.35-.73a1.8,1.8,0,0,0-1.45-1.81l-1,.45a38.18,38.18,0,0,0-5.68-1.23A3.13,3.13,0,0,0,101,5c-.06,0-.18,0-.23,0L99.5,4.34c-1.35.72-2.69,1.5-4.08,2.18A13.4,13.4,0,0,0,89,13.27a15.06,15.06,0,0,0-1.72,7.23c.16,2.35.43,4.69.64,7,1.36,1,1.39,1.1,1.81,2.85a2.51,2.51,0,0,0,.65,1.21,19.74,19.74,0,0,0,7.47,4.76c2,.66,4.1.49,6.17.57,3.66.15,6.37-1.76,8.94-4,.09-.08.08-.26.12-.41l-.7-1.16c.13-1.1.25-2.25.39-3.4a19,19,0,0,0,.31-2.08,22.58,22.58,0,0,0-.17-3.68c-.19-1.18,0-2.46-.68-3.52-1.67-.28-2.06-.23-3,.28-2.22-.8-4.35-.42-6.57,0,0,1.78,0,3.57,0,5.36,0,.31.29.61.41.85l2.13-.18c-.14,1.21-.26,2.21-.39,3.29a11,11,0,0,1-6.68-2.35,5,5,0,0,1-1.36-1.6,8.6,8.6,0,0,1,.08-7.66A3.57,3.57,0,0,1,97.37,15.85Z"/></g></g></svg>