<?xml version="1.0" encoding="utf-8"?>
<!-- Generator: Adobe Illustrator 22.0.1, SVG Export Plug-In . SVG Version: 6.00 Build 0)  -->
<svg version="1.1" id="Capa_1" xmlns="http://www.w3.org/2000/svg" xmlns:xlink="http://www.w3.org/1999/xlink" x="0px" y="0px"
	 viewBox="0 0 71 71" style="enable-background:new 0 0 71 71;" xml:space="preserve">
<style type="text/css">
	.st0{filter:url(#Adobe_OpacityMaskFilter);}
	.st1{fill:#FFFFFF;}
	.st2{fill:none;stroke:#000000;stroke-width:2.1837;stroke-miterlimit:10;}
	.st3{fill:#5B75B3;}
	.st4{fill-rule:evenodd;clip-rule:evenodd;fill:#5B75B3;}
	.st5{fill:#D43B35;}
	.st6{fill:#D55447;}
	.st7{fill:#725744;}
	.st8{fill-rule:evenodd;clip-rule:evenodd;fill:#725744;}
	.st9{fill:#5B9529;}
	.st10{fill-rule:evenodd;clip-rule:evenodd;fill:#5B9529;}
	.st11{fill-rule:evenodd;clip-rule:evenodd;fill:#D43B35;}
	.st12{fill:#E0E0E0;}
	.st13{fill-rule:evenodd;clip-rule:evenodd;fill:#E0E0E0;}
	.st14{fill:none;stroke:#E0E0E0;stroke-width:2;stroke-miterlimit:10;}
	.st15{fill:none;stroke:#505050;stroke-width:3;stroke-miterlimit:10;}
	.st16{fill:#333333;}
	.st17{fill:none;stroke:#59544E;stroke-width:3;stroke-linecap:round;stroke-linejoin:round;stroke-miterlimit:10;}
	.st18{fill:none;stroke:#494949;stroke-width:6;stroke-miterlimit:10;}
	.st19{fill:#494949;}
	.st20{fill:#606060;}
	.st21{fill-rule:evenodd;clip-rule:evenodd;fill:#606060;}
	.st22{fill:none;stroke:#000000;stroke-width:4.1696;stroke-miterlimit:10;}
	.st23{fill-rule:evenodd;clip-rule:evenodd;fill:#FFFFFF;}
</style>
<g>
	<g>
		<polygon class="st1" points="35.5,43.3 23,26.8 48,26.8 		"/>
	</g>
	<g>
		<g>
			<path class="st1" d="M63.8,24.3c4,12.3-0.4,25.7-10.8,33.3c-10.4,7.6-24.6,7.6-35,0S3.2,36.6,7.2,24.3C11.2,12,22.6,3.7,35.5,3.7
				S59.8,12,63.8,24.3z M35.5,6.4C23.8,6.4,13.4,14,9.7,25.1c-3.6,11.2,0.3,23.4,9.8,30.3c9.5,6.9,22.4,6.9,31.9,0
				c9.5-6.9,13.5-19.1,9.8-30.3C57.6,14,47.2,6.4,35.5,6.4z"/>
		</g>
	</g>
</g>
</svg>
