<?xml version="1.0" encoding="utf-8"?>
<!-- Generator: Adobe Illustrator 22.0.1, SVG Export Plug-In . SVG Version: 6.00 Build 0)  -->
<svg version="1.1" id="Capa_1" xmlns="http://www.w3.org/2000/svg" xmlns:xlink="http://www.w3.org/1999/xlink" x="0px" y="0px"
	 viewBox="0 0 71 71" style="enable-background:new 0 0 71 71;" xml:space="preserve">
<style type="text/css">
	.st0{filter:url(#Adobe_OpacityMaskFilter);}
	.st1{fill:#FFFFFF;}
	.st2{fill:none;stroke:#000000;stroke-width:2.1837;stroke-miterlimit:10;}
	.st3{fill:#5B75B3;}
	.st4{fill-rule:evenodd;clip-rule:evenodd;fill:#5B75B3;}
	.st5{fill:#D43B35;}
	.st6{fill:#D55447;}
	.st7{fill:#725744;}
	.st8{fill-rule:evenodd;clip-rule:evenodd;fill:#725744;}
	.st9{fill:#5B9529;}
	.st10{fill-rule:evenodd;clip-rule:evenodd;fill:#5B9529;}
	.st11{fill-rule:evenodd;clip-rule:evenodd;fill:#D43B35;}
	.st12{fill:#E0E0E0;}
	.st13{fill-rule:evenodd;clip-rule:evenodd;fill:#E0E0E0;}
	.st14{fill:none;stroke:#E0E0E0;stroke-width:2;stroke-miterlimit:10;}
	.st15{fill:none;stroke:#505050;stroke-width:3;stroke-miterlimit:10;}
	.st16{fill:#333333;}
	.st17{fill:none;stroke:#59544E;stroke-width:3;stroke-linecap:round;stroke-linejoin:round;stroke-miterlimit:10;}
	.st18{fill:none;stroke:#494949;stroke-width:6;stroke-miterlimit:10;}
	.st19{fill:#494949;}
	.st20{fill:#606060;}
	.st21{fill-rule:evenodd;clip-rule:evenodd;fill:#606060;}
	.st22{fill:none;stroke:#000000;stroke-width:4.1696;stroke-miterlimit:10;}
	.st23{fill-rule:evenodd;clip-rule:evenodd;fill:#FFFFFF;}
</style>
<g>
	<g>
		<g>
			<path class="st1" d="M63.8,24.8c4,12.3-0.4,25.7-10.8,33.3c-10.4,7.6-24.6,7.6-35,0S3.2,37.1,7.2,24.8
				c4-12.3,15.4-20.6,28.3-20.6S59.8,12.5,63.8,24.8z M35.5,6.9c-11.7,0-22.1,7.6-25.8,18.7C6.1,36.8,10.1,49,19.6,55.9
				c9.5,6.9,22.4,6.9,31.9,0c9.5-6.9,13.5-19.1,9.8-30.3C57.6,14.5,47.2,6.9,35.5,6.9z"/>
		</g>
	</g>
	<g>
		<g>
			<path class="st1" d="M32.9,19.3h-1.7l-1.1,4.3L29,19.3h-1.7c0.3,1,0.7,2.1,1.1,3.1c0.5,1.5,0.9,2.7,1,3.5v4.5H31v-4.5L32.9,19.3z
				 M37.4,27.6v-2.9c0-0.9-0.2-1.5-0.5-1.9c-0.4-0.6-1-0.8-1.7-0.8c-0.7,0-1.3,0.3-1.7,0.8c-0.3,0.4-0.5,1.1-0.5,1.9v2.9
				c0,0.9,0.1,1.5,0.5,1.9c0.4,0.6,1,0.8,1.7,0.8c0.7,0,1.3-0.3,1.7-0.8C37.2,29.2,37.4,28.5,37.4,27.6z M35.9,27.9
				c0,0.8-0.2,1.1-0.7,1.1c-0.5,0-0.7-0.4-0.7-1.1v-3.5c0-0.8,0.2-1.1,0.7-1.1c0.5,0,0.7,0.4,0.7,1.1V27.9z M42.9,30.3v-8.2h-1.5
				v6.3c-0.3,0.5-0.6,0.7-0.9,0.7c-0.2,0-0.3-0.1-0.3-0.3c0,0,0-0.2,0-0.6v-6h-1.5v6.5c0,0.6,0,1,0.1,1.2c0.1,0.4,0.5,0.6,1,0.6
				c0.5,0,1.1-0.3,1.7-1v0.9H42.9z"/>
			<g>
				<path class="st1" d="M38.2,38.6c-0.2,0-0.5,0.1-0.7,0.4v5c0.2,0.2,0.5,0.4,0.7,0.4c0.4,0,0.6-0.4,0.6-1.1v-3.5
					C38.8,39,38.6,38.6,38.2,38.6z"/>
				<path class="st1" d="M43.7,38.6c-0.5,0-0.7,0.4-0.7,1.1v0.7h1.5v-0.7C44.4,39,44.2,38.6,43.7,38.6z"/>
				<path class="st1" d="M47.3,34.5c-0.3-1.3-1.4-2.3-2.6-2.4c-3-0.3-6.1-0.3-9.1-0.3c-3,0-6.1,0-9.1,0.3c-1.3,0.1-2.3,1.1-2.6,2.4
					c-0.4,1.8-0.4,3.9-0.4,5.8c0,1.9,0,3.9,0.4,5.8c0.3,1.3,1.4,2.3,2.6,2.4c3,0.3,6.1,0.3,9.1,0.3c3,0,6.1,0,9.1-0.3
					c1.3-0.1,2.3-1.1,2.6-2.4c0.4-1.8,0.4-3.9,0.4-5.8C47.7,38.3,47.7,36.3,47.3,34.5z M30.3,36.1h-1.8v9.4h-1.6v-9.4h-1.7v-1.5h5.1
					V36.1z M34.7,45.5h-1.5v-0.9c-0.6,0.7-1.1,1-1.7,1c-0.5,0-0.8-0.2-0.9-0.6c-0.1-0.2-0.1-0.6-0.1-1.2v-6.4H32v6
					c0,0.3,0,0.5,0,0.6c0,0.2,0.1,0.3,0.3,0.3c0.3,0,0.6-0.2,0.9-0.7v-6.2h1.5V45.5z M40.3,43.1c0,0.8,0,1.3-0.1,1.6
					c-0.2,0.6-0.6,0.9-1.2,0.9c-0.5,0-1-0.3-1.5-0.9v0.8H36V34.6h1.5v3.6c0.5-0.6,1-0.9,1.5-0.9c0.6,0,1,0.3,1.2,0.9
					c0.1,0.3,0.1,0.9,0.1,1.6V43.1z M45.9,41.7h-2.9v1.4c0,0.8,0.2,1.1,0.8,1.1c0.4,0,0.6-0.2,0.7-0.6c0-0.1,0-0.4,0-1h1.5v0.2
					c0,0.5,0,0.8,0,0.9c0,0.3-0.2,0.6-0.3,0.9c-0.4,0.6-1,0.9-1.8,0.9c-0.8,0-1.4-0.3-1.8-0.8c-0.3-0.4-0.5-1.1-0.5-1.9V40
					c0-0.9,0.1-1.5,0.5-1.9c0.4-0.6,1-0.8,1.8-0.8c0.7,0,1.3,0.3,1.7,0.8c0.3,0.4,0.5,1,0.5,1.9V41.7z"/>
			</g>
		</g>
	</g>
</g>
</svg>
